<?xml version="1.0" encoding="utf-8"?>
<!-- Generator: Adobe Illustrator 25.4.1, SVG Export Plug-In . SVG Version: 6.00 Build 0)  -->
<svg version="1.1" id="Capa_1" xmlns="http://www.w3.org/2000/svg" xmlns:xlink="http://www.w3.org/1999/xlink" x="0px" y="0px"
	 viewBox="0 0 1493.8 983.8" style="enable-background:new 0 0 1493.8 983.8;" xml:space="preserve">
<style type="text/css">
	.st0{fill:#ECB35A;}
	.st1{fill:#A99AC4;}
	.st2{display:none;}
	.st3{display:inline;}
	.st4{fill:#FFFFFF;}
</style>
<g id="Capa_1_00000178893669905447550630000017178958077930594750_">
	<g>
		<path class="st0" d="M205.2,823.7l0.3,3.3h-36.2l-0.7-3.3c-6.3-30.9-25.2-50.5-59.8-50.5c-42.5,0-69.4,36.5-69.4,90.7
			c0,56.8,27.2,92,67.8,92c34.5,0,53.5-20.3,59.8-51.1l0.7-3.3h36.2l-0.3,3.3c-4.6,44.8-38.2,79-98,79C40.2,983.8,0,935.3,0,865.5
			c0-72.1,45.2-120.2,109.6-120.2C169.4,745.3,200.6,778.5,205.2,823.7z"/>
		<path class="st0" d="M390.6,890.8c0,51.5-30.2,93-89.3,93c-59.4,0-89.3-41.5-89.3-93s29.9-92.7,89.3-92.7
			C360.3,798.1,390.6,839.3,390.6,890.8z M351.7,890.8c0-39.8-18.6-66.1-50.5-66.1c-32.2,0-50.8,26.2-50.8,66.1s18.6,66.4,50.8,66.4
			C333.1,957.2,351.7,930.6,351.7,890.8z"/>
		<path class="st0" d="M445.3,790.8v13.3h36.2v25.6h-36.2v149.4h-36.2V829.6h-18.9V804h18.9v-11.3c0-6.3,0-14.9,0.7-20.9
			c3-27.2,21.2-43.2,54.5-43.2c7.3,0,14.3,0.7,20.3,2v27.2c-21.6-4-36.2,1.3-38.2,15.9C445.7,778.5,445.3,785.8,445.3,790.8z"/>
		<path class="st0" d="M532.4,790.8v13.3h36.2v25.6h-36.2v149.4h-36.2V829.6h-18.9V804h18.9v-11.3c0-6.3,0-14.9,0.7-20.9
			c3-27.2,21.2-43.2,54.5-43.2c7.3,0,14.3,0.7,20.3,2v27.2c-21.6-4-36.2,1.3-38.2,15.9C532.7,778.5,532.4,785.8,532.4,790.8z"/>
		<path class="st0" d="M731.3,901.1H604.8c3,42.2,22.2,56.1,46.2,56.1c21.2,0,37.9-12.9,41.5-35.2h36.9
			c-7.6,41.8-41.2,61.8-79.7,61.8c-47.2,0-82.7-29.9-82.7-92.3c0-55.8,35.5-93.3,86.3-93.3c51.1,0,78.7,38.5,78.7,88.3
			C732,889.8,732,894.8,731.3,901.1z M605.1,875.5h89.3c-2.7-32.6-16.9-50.8-42.5-50.8C627,824.7,609.1,841.6,605.1,875.5z"/>
		<path class="st1" d="M948.8,823.7l0.3,3.3H913l-0.7-3.3c-6.3-30.9-25.2-50.5-59.8-50.5c-42.5,0-69.4,36.5-69.4,90.7
			c0,56.8,27.2,92,67.8,92c34.5,0,53.5-20.3,59.8-51.1l0.7-3.3h36.2l-0.3,3.3c-4.7,44.8-38.2,79-98,79
			c-65.4,0-105.6-48.5-105.6-118.2c0-72.1,45.2-120.2,109.6-120.2C913,745.3,944.2,778.5,948.8,823.7z"/>
		<path class="st1" d="M1134.2,890.8c0,51.5-30.2,93-89.3,93c-59.5,0-89.3-41.5-89.3-93s29.9-92.7,89.3-92.7
			C1103.9,798.1,1134.2,839.3,1134.2,890.8z M1095.3,890.8c0-39.8-18.6-66.1-50.5-66.1c-32.2,0-50.8,26.2-50.8,66.1
			s18.6,66.4,50.8,66.4C1076.7,957.2,1095.3,930.6,1095.3,890.8z"/>
		<path class="st1" d="M1311.8,979.1h-36.5v-27.9l-13.3,19.3c-10,8-28.2,13.3-46.2,13.3c-50.5,0-79.4-38.2-79.4-90
			c0-64.4,39.8-95.7,85.3-95.7c14.6,0,32.9,4,41.8,11l11.6,17.6V735h36.5L1311.8,979.1L1311.8,979.1z M1275.3,892.8v-9.3
			c0-42.8-25.9-58.8-49.5-58.8c-28.9,0-50.8,22.2-50.8,66.1c0,38.2,17.6,66.4,49.2,66.4C1251.7,957.2,1275.3,939.9,1275.3,892.8z"/>
		<path class="st1" d="M1493.2,901.1h-126.5c3,42.2,22.2,56.1,46.2,56.1c21.2,0,37.9-12.9,41.5-35.2h36.9
			c-7.6,41.8-41.2,61.8-79.7,61.8c-47.2,0-82.7-29.9-82.7-92.3c0-55.8,35.5-93.3,86.3-93.3c51.1,0,78.7,38.5,78.7,88.3
			C1493.8,889.8,1493.8,894.8,1493.2,901.1z M1367,875.5h89.3c-2.7-32.6-16.9-50.8-42.5-50.8C1388.9,824.7,1370.9,841.6,1367,875.5z
			"/>
	</g>
	<g>
		<path class="st1" d="M1107.3,153.8h83v318.6h-83v-28.9h53V182.7h-53V153.8z"/>
	</g>
	<g>
		<g>
			<path class="st1" d="M907.8,290.4l0.2,2.5h-33.8l-0.5-2.5c-4.2-20.8-16.9-33-39.4-33c-27.2,0-45.5,23.3-45.5,61.7
				c0,42.1,19.3,63.7,45.1,63.7c22,0,34.8-13.2,39.2-34.3l0.5-2.5H907l-0.2,2.5c-3.7,36-31.1,59.5-74.4,59.5
				c-47,0-79.3-33-79.3-86.9c0-55.3,35-88.9,81.8-88.9C880.6,232.2,904.4,257.1,907.8,290.4z"/>
		</g>
		<g>
			<path class="st0" d="M666.5,232.2c46.8,0,81.8,33.5,81.8,88.9C748.3,375,716,408,669,408c-43.3,0-70.8-23.5-74.4-59.5l-0.2-2.5
				h33.5l0.5,2.5c4.4,21.1,17.1,34.3,39.2,34.3c25.7,0,45-21.5,45-63.7c0-38.4-18.4-61.7-45.5-61.7c-22.5,0-35.3,12.2-39.4,33
				l-0.5,2.5h-33.8l0.2-2.5C597,257.1,620.7,232.2,666.5,232.2z"/>
		</g>
		<g>
			<path class="st1" d="M529.7,40.8c-43,0-56.1,13.1-56.1,35.7c0,16.8,1.5,26.2,8,72.8c7.3,51,9.5,67,9.5,89.6
				c0,42.2-23.3,68.5-63.4,73.6c39.3,5.1,63.4,32.8,63.4,75c0,22.6-2.2,38.6-9.5,89.6c-6.5,46.6-8,56.1-8,72.8
				c0,22.6,13.1,35.7,56.1,35.7h8.7v40.8h-8c-62.6,0-99-17.5-99-77.2c0-15.3,1.5-27.7,8.7-79.4c5.8-40.1,8-59.7,8-80.1
				c0-32-16-51.7-59.7-56.1v-40.8c43.7-4.4,59.7-24,59.7-56.1c0-20.4-2.2-40.1-8-80.1c-7.3-51.7-8.7-64.1-8.7-79.4
				c0-59.7,36.4-77.2,99-77.2h8v40.8L529.7,40.8L529.7,40.8z"/>
		</g>
		<g>
			<path class="st1" d="M955.4,40.8V0h8c62.6,0,99.1,17.5,99.1,77.2c0,15.3-1.5,27.7-8.7,79.4c-5.8,40.1-8,59.7-8,80.1
				c0,32,16,51.7,59.7,56.1v40.8c-43.7,4.4-59.7,24-59.7,56.1c0,20.4,2.2,40.1,8,80.1c7.3,51.7,8.7,64.1,8.7,79.4
				c0,59.7-36.4,77.2-99.1,77.2h-8v-40.8h8.7c43,0,56.1-13.1,56.1-35.7c0-16.8-1.5-26.2-8-72.8c-7.3-51-9.5-67-9.5-89.6
				c0-42.2,24-69.9,63.4-75c-40.1-5.1-63.4-31.3-63.4-73.6c0-22.6,2.2-38.6,9.5-89.6c6.6-46.6,8-56.1,8-72.8
				c0-22.6-13.1-35.7-56.1-35.7L955.4,40.8L955.4,40.8z"/>
		</g>
		<ellipse class="st0" cx="748.3" cy="84" rx="207.8" ry="30"/>
	</g>
</g>
<g id="Capa_2_00000147933126220466742900000016241953906368955298_">
</g>
<g id="Capa_3" class="st2">
	<g class="st3">
		<g>
			<path class="st4" d="M4378.6,1322.2l0.1,1.1h-12.1l-0.2-1.1c-2.1-10.3-8.4-16.9-20-16.9c-14.2,0-23.2,12.2-23.2,30.3
				c0,19,9.1,30.8,22.6,30.8c11.5,0,17.9-6.8,20-17.1l0.2-1.1h12.1l-0.1,1.1c-1.5,15-12.8,26.4-32.8,26.4
				c-21.9,0-35.3-16.2-35.3-39.5c0-24.1,15.1-40.2,36.6-40.2C4366.6,1295.9,4377.1,1307,4378.6,1322.2z"/>
			<path class="st4" d="M4440.6,1344.6c0,17.2-10.1,31.1-29.9,31.1c-19.9,0-29.9-13.9-29.9-31.1s10-31,29.9-31
				C4430.5,1313.6,4440.6,1327.4,4440.6,1344.6z M4427.6,1344.6c0-13.3-6.2-22.1-16.9-22.1c-10.8,0-17,8.8-17,22.1s6.2,22.2,17,22.2
				C4421.4,1366.8,4427.6,1357.9,4427.6,1344.6z"/>
			<path class="st4" d="M4458.9,1311.2v4.4h12.1v8.6h-12.1v49.9h-12.1v-49.9h-6.3v-8.6h6.3v-3.8c0-2.1,0-5,0.2-7
				c1-9.1,7.1-14.4,18.2-14.4c2.4,0,4.8,0.2,6.8,0.7v9.1c-7.2-1.3-12.1,0.4-12.8,5.3C4459,1307,4458.9,1309.5,4458.9,1311.2z"/>
			<path class="st4" d="M4488,1311.2v4.4h12.1v8.6H4488v49.9h-12.1v-49.9h-6.3v-8.6h6.3v-3.8c0-2.1,0-5,0.2-7
				c1-9.1,7.1-14.4,18.2-14.4c2.4,0,4.8,0.2,6.8,0.7v9.1c-7.2-1.3-12.1,0.4-12.8,5.3C4488.1,1307,4488,1309.5,4488,1311.2z"/>
			<path class="st4" d="M4554.5,1348h-42.3c1,14.1,7.4,18.8,15.4,18.8c7.1,0,12.6-4.3,13.9-11.8h12.3c-2.5,14-13.8,20.7-26.6,20.7
				c-15.8,0-27.6-10-27.6-30.9c0-18.7,11.9-31.2,28.9-31.2c17.1,0,26.3,12.9,26.3,29.5C4554.7,1344.2,4554.7,1345.9,4554.5,1348z
				 M4512.3,1339.5h29.9c-0.9-10.9-5.7-17-14.2-17C4519.6,1322.5,4513.6,1328.1,4512.3,1339.5z"/>
			<path class="st4" d="M4627.2,1322.2l0.1,1.1h-12.1l-0.2-1.1c-2.1-10.3-8.4-16.9-20-16.9c-14.2,0-23.2,12.2-23.2,30.3
				c0,19,9.1,30.8,22.6,30.8c11.5,0,17.9-6.8,20-17.1l0.2-1.1h12.1l-0.1,1.1c-1.5,15-12.8,26.4-32.8,26.4
				c-21.9,0-35.3-16.2-35.3-39.5c0-24.1,15.1-40.2,36.6-40.2C4615.2,1295.9,4625.6,1307,4627.2,1322.2z"/>
			<path class="st4" d="M4689.1,1344.6c0,17.2-10.1,31.1-29.9,31.1c-19.9,0-29.9-13.9-29.9-31.1s10-31,29.9-31
				C4679,1313.6,4689.1,1327.4,4689.1,1344.6z M4676.1,1344.6c0-13.3-6.2-22.1-16.9-22.1c-10.8,0-17,8.8-17,22.1s6.2,22.2,17,22.2
				C4669.9,1366.8,4676.1,1357.9,4676.1,1344.6z"/>
			<path class="st4" d="M4748.5,1374.1h-12.2v-9.3l-4.4,6.4c-3.3,2.7-9.4,4.4-15.4,4.4c-16.9,0-26.5-12.8-26.5-30.1
				c0-21.5,13.3-32,28.5-32c4.9,0,11,1.3,14,3.7l3.9,5.9v-30.6h12.2L4748.5,1374.1L4748.5,1374.1z M4736.3,1345.2v-3.1
				c0-14.3-8.7-19.7-16.5-19.7c-9.7,0-17,7.4-17,22.1c0,12.8,5.9,22.2,16.4,22.2C4728.4,1366.8,4736.3,1361,4736.3,1345.2z"/>
			<path class="st4" d="M4809.1,1348h-42.3c1,14.1,7.4,18.8,15.4,18.8c7.1,0,12.6-4.3,13.9-11.8h12.3c-2.5,14-13.8,20.7-26.6,20.7
				c-15.8,0-27.6-10-27.6-30.9c0-18.7,11.9-31.2,28.9-31.2c17.1,0,26.3,12.9,26.3,29.5C4809.3,1344.2,4809.3,1345.9,4809.1,1348z
				 M4766.9,1339.5h29.9c-0.9-10.9-5.7-17-14.2-17C4774.2,1322.5,4768.2,1328.1,4766.9,1339.5z"/>
		</g>
		<g>
			<path class="st4" d="M4680.1,1098.3h27.7v106.5h-27.7v-9.7h17.7v-87.2h-17.7V1098.3z"/>
		</g>
		<g>
			<g>
				<path class="st4" d="M4613.5,1143.9l0.1,0.8h-11.3l-0.2-0.8c-1.4-7-5.6-11.1-13.2-11.1c-9.1,0-15.2,7.8-15.2,20.6
					c0,14.1,6.5,21.3,15.1,21.3c7.4,0,11.6-4.4,13.1-11.5l0.2-0.8h11.2l-0.1,0.8c-1.2,12-10.4,19.9-24.9,19.9
					c-15.7,0-26.5-11.1-26.5-29.1c0-18.5,11.7-29.7,27.3-29.7C4604.4,1124.4,4612.3,1132.8,4613.5,1143.9z"/>
			</g>
			<g>
				<path class="st4" d="M4532.8,1124.4c15.6,0,27.3,11.2,27.3,29.7c0,18-10.8,29.1-26.5,29.1c-14.5,0-23.6-7.9-24.9-19.9l-0.1-0.8
					h11.2l0.2,0.8c1.5,7,5.7,11.5,13.1,11.5c8.6,0,15.1-7.2,15.1-21.3c0-12.8-6.1-20.6-15.2-20.6c-7.5,0-11.8,4.1-13.2,11.1
					l-0.2,0.8h-11.3l0.1-0.8C4509.6,1132.8,4517.5,1124.4,4532.8,1124.4z"/>
			</g>
			<g>
				<path class="st4" d="M4487.1,1060.5c-14.4,0-18.7,4.4-18.7,11.9c0,5.6,0.5,8.8,2.7,24.3c2.4,17,3.2,22.4,3.2,29.9
					c0,14.1-7.8,22.9-21.2,24.6c13.1,1.7,21.2,10.9,21.2,25.1c0,7.6-0.7,12.9-3.2,29.9c-2.2,15.6-2.7,18.7-2.7,24.3
					c0,7.6,4.4,11.9,18.7,11.9h2.9v13.6h-2.7c-20.9,0-33.1-5.8-33.1-25.8c0-5.1,0.5-9.2,2.9-26.5c2-13.4,2.7-20,2.7-26.8
					c0-10.7-5.4-17.3-20-18.7v-13.6c14.6-1.5,20-8,20-18.7c0-6.8-0.7-13.4-2.7-26.8c-2.4-17.3-2.9-21.4-2.9-26.5
					c0-20,12.2-25.8,33.1-25.8h2.7v13.6L4487.1,1060.5L4487.1,1060.5z"/>
			</g>
			<g>
				<path class="st4" d="M4629.4,1060.5v-13.6h2.7c20.9,0,33.1,5.8,33.1,25.8c0,5.1-0.5,9.2-2.9,26.5c-2,13.4-2.7,20-2.7,26.8
					c0,10.7,5.4,17.3,20,18.7v13.6c-14.6,1.5-20,8-20,18.7c0,6.8,0.7,13.4,2.7,26.8c2.4,17.3,2.9,21.4,2.9,26.5
					c0,20-12.2,25.8-33.1,25.8h-2.7v-13.6h2.9c14.4,0,18.7-4.4,18.7-11.9c0-5.6-0.5-8.8-2.7-24.3c-2.4-17-3.2-22.4-3.2-29.9
					c0-14.1,8-23.4,21.2-25.1c-13.4-1.7-21.2-10.5-21.2-24.6c0-7.6,0.7-12.9,3.2-29.9c2.2-15.6,2.7-18.7,2.7-24.3
					c0-7.6-4.4-11.9-18.7-11.9L4629.4,1060.5L4629.4,1060.5z"/>
			</g>
			<ellipse class="st4" cx="4560.1" cy="1074.9" rx="69.5" ry="10"/>
		</g>
	</g>
</g>
<g id="Capa_4">
</g>
<g id="Capa_5">
</g>
</svg>
